<?xml version="1.0" ?>
<svg xmlns="http://www.w3.org/2000/svg" xmlns:xlink="http://www.w3.org/1999/xlink" version="1.1" viewBox="0 0 2002 1880" width="100%">
  <path fill="#FFFFFF" d=" M147.781281,17.000849   C147.853561,29.988546 147.987549,42.976238 147.988739,55.963940   C148.002380,205.053513 147.995911,354.143097 147.994568,503.232666   C147.994492,510.251770 146.305069,511.989075 139.475204,511.989166   C95.331360,511.989746 51.187504,511.997345 7.043687,511.960358   C5.283001,511.958893 3.522673,511.530975 1.381089,511.650879   C1.000000,345.979095 1.000000,179.958206 1.000000,13.468657   C47.164944,12.999996 93.330032,12.959343 139.494400,13.121550   C141.772415,13.129554 144.044220,14.906676 146.738998,16.208183   C147.310944,16.782230 147.518341,16.930399 147.781281,17.000849  z" id="LeftCorner"/>
  <path fill="#FFFFFF" d=" M653.266968,701.656006   C670.752014,712.669067 687.982239,723.414856 705.660767,734.440186   C702.470764,740.320923 699.378967,746.020203 696.287537,751.719727   C690.100647,763.126160 683.946716,774.550598 677.720764,785.935608   C663.207642,812.474854 648.611328,838.968567 634.145935,865.533691   C626.470459,879.629333 619.076355,893.878052 611.413208,907.980469   C602.480408,924.419373 593.445496,940.803406 584.343750,957.149353   C581.006775,963.142334 577.537354,969.079407 573.788391,974.819946   C570.253540,980.232727 569.892883,981.092773 571.902832,987.564819   C568.618774,989.214539 565.931274,991.620178 563.619385,985.653198   C562.419617,982.556519 559.006836,979.443481 555.848328,978.128662   C541.196655,972.029785 528.330688,962.899963 514.919312,954.739624   C485.288788,936.710571 456.716125,917.115540 429.666046,895.359375   C428.650299,894.542419 427.706390,893.636047 426.417847,892.496094   C428.091675,891.883850 429.370361,891.416138 430.586670,890.971191   C427.078888,887.873901 423.799225,884.733643 420.247589,881.939026   C418.301178,880.407410 415.688324,879.722534 413.743073,878.189880   C410.359344,875.523865 407.290741,872.461609 404.033722,869.630310   C399.487152,865.678040 394.747772,861.936218 390.349579,857.827454   C385.201843,853.018433 381.008209,846.858582 375.211334,843.137451   C359.559753,833.090454 347.297943,819.437683 334.925232,806.101624   C315.718536,785.399536 296.793701,764.310547 279.356323,742.122620   C255.244843,711.442383 233.851608,678.771118 214.799789,644.659180   C200.632309,619.292480 186.305298,593.997314 172.915436,568.220459   C164.641418,552.292053 157.837570,535.586670 150.707397,519.085938   C148.629120,514.276367 147.754837,509.235443 147.765045,503.596222   C148.056427,342.613953 147.999924,181.631073 147.999908,20.648279   C147.999908,13.131814 149.139999,11.957203 156.452911,11.957680   C250.942780,11.963846 345.432648,11.970540 439.922516,11.977862   C446.567352,11.978376 449.022003,14.441771 449.022125,21.110394   C449.024780,172.427536 449.111572,323.744873 448.812073,475.061401   C448.794647,483.873047 452.400055,490.660675 456.312622,497.518280   C470.529968,522.437378 487.746887,545.341614 505.576447,567.713745   C516.161804,580.995972 528.003967,593.289124 539.483459,605.841919   C546.984985,614.044861 554.386108,622.433899 562.649109,629.826416   C579.124390,644.566101 595.812439,659.115173 613.083557,672.902527   C625.842346,683.087830 639.664062,691.941711 653.266968,701.656006  z" id="LeftMid"/>
  <path fill="#FFFFFF" d=" M886.369751,365.627228   C860.809753,345.600067 842.691223,320.307220 829.633972,291.237061   C818.695679,266.884521 813.464783,241.331497 813.873108,214.568710   C814.167664,195.262299 813.991333,175.947174 813.890625,156.636642   C813.794312,138.163574 813.419128,119.691750 813.356140,101.218735   C813.266541,74.943344 813.337585,48.667343 813.367615,22.391640   C813.376587,14.537319 815.107361,12.895353 823.135132,12.895330   C942.113403,12.894990 1061.091675,12.894905 1180.069946,12.895530   C1187.827148,12.895571 1189.673950,14.689870 1189.624756,22.596588   C1189.483765,45.233967 1189.172485,67.870689 1189.125488,90.508080   C1189.098511,103.476921 1189.645264,116.447182 1189.602417,129.415710   C1189.497803,161.034866 1189.365479,192.655685 1188.922607,224.271332   C1188.617432,246.056427 1183.503784,266.857849 1175.137573,286.956879   C1164.740723,311.934570 1150.100708,334.046600 1131.069214,353.223999   C1127.116211,357.207306 1122.585938,360.622437 1118.278931,364.248566   C1110.753540,370.584290 1103.793579,377.839630 1095.528198,382.997375   C1077.287964,394.379517 1057.092163,401.001007 1035.883545,404.708557   C1014.585693,408.431702 993.227905,408.500519 971.953857,405.552124   C946.657166,402.046204 922.930237,393.582245 901.558228,379.426025   C896.020142,375.757751 891.582764,370.427856 886.369751,365.627228  z" id="Charge"/>
  <path fill="#FFFFFF" d=" M459.167572,1204.743652   C456.945221,1204.245850 454.631165,1203.995117 452.515472,1203.210083   C439.387451,1198.338135 426.936279,1192.070801 414.806152,1185.076050   C389.779236,1170.644653 364.275909,1157.001831 339.662537,1141.903320   C321.820831,1130.958618 304.589783,1118.851562 287.989990,1106.087769   C262.594818,1086.561035 237.475189,1066.605957 213.206924,1045.708252   C196.816162,1031.593994 181.665588,1015.950256 166.733398,1000.255066   C149.796402,982.452637 133.333740,964.160278 117.402115,945.453064   C105.771698,931.796448 95.046272,917.334473 84.445244,902.845337   C73.492882,887.875916 62.489616,872.865723 52.745811,857.108276   C38.023373,833.299500 24.387722,808.819214 10.256107,784.644226   C7.422898,779.797424 4.437046,775.039856 1.260783,770.620605   C1.000000,684.979126 1.000000,598.958191 1.000000,512.468628   C46.997299,511.961060 92.994598,511.922272 138.991898,511.882599   C140.491699,511.881317 142.205963,512.343811 143.451370,511.778076   C147.298904,510.030273 148.619217,512.901855 149.633331,515.237244   C155.810104,529.461426 160.869080,544.245911 167.977051,557.975708   C183.994919,588.916016 200.521576,619.616882 217.751740,649.897095   C229.406158,670.378540 241.736145,690.597656 255.349747,709.810486   C271.307404,732.331482 288.527710,754.009644 306.063538,775.343933   C319.736053,791.977966 334.191254,808.054993 349.281891,823.413452   C365.101410,839.513611 381.588135,855.049622 398.705811,869.758606   C418.380859,886.665161 438.458954,903.238770 459.484924,918.399597   C481.022491,933.929138 503.789917,947.778870 526.278503,961.952148   C536.486816,968.385864 547.338379,973.795959 557.865601,979.728027   C564.711609,983.585754 566.330200,990.056396 563.072327,996.452087   C553.895752,1014.466980 543.722961,1031.972168 534.077881,1049.751343   C527.136597,1062.546753 520.497559,1075.505859 513.563965,1088.305420   C507.719940,1099.093750 501.513733,1109.686401 495.706848,1120.494141   C488.148804,1134.561035 480.946777,1148.819336 473.364990,1162.873047   C467.414490,1173.903198 461.091125,1184.731812 455.038910,1195.708130   C454.599640,1196.504883 454.667297,1197.968262 455.112732,1198.788452   C456.167816,1200.730957 457.592224,1202.473022 459.014526,1204.572510   C459.161713,1204.848877 459.167572,1204.743652 459.167572,1204.743652  z" id="LeftThree"/>
  <path fill="#FFFFFF" d=" M1101.839600,798.875732   C1107.875000,797.875854 1113.488647,797.033997 1119.028809,795.849060   C1132.111084,793.050842 1145.214478,790.318359 1158.203613,787.128967   C1171.001099,783.986572 1183.818359,780.780334 1196.351929,776.747375   C1209.786133,772.424561 1223.099854,767.580505 1236.104370,762.104919   C1254.042725,754.551819 1271.569458,746.026306 1289.424316,738.266785   C1296.135498,735.350159 1298.364380,736.440063 1301.967041,743.004211   C1309.391602,756.531738 1316.608398,770.173096 1323.986694,783.726257   C1332.338867,799.068726 1340.818970,814.341736 1349.160522,829.689880   C1356.515747,843.222839 1363.686768,856.856140 1371.063721,870.377075   C1384.991089,895.904297 1398.966675,921.405334 1413.007935,946.870117   C1418.711304,957.213623 1424.650757,967.426880 1430.457642,977.713562   C1433.172974,982.523560 1432.379639,985.906433 1427.426758,988.379456   C1419.204102,992.485229 1410.757202,996.140930 1402.526611,1000.231628   C1398.698486,1002.134277 1395.295044,1004.901855 1391.444824,1006.746765   C1387.751343,1008.516541 1383.680908,1009.479370 1379.860474,1011.007996   C1369.117310,1015.306519 1358.098633,1019.084656 1347.813232,1024.299927   C1341.010864,1027.749146 1333.865234,1029.589478 1326.857666,1032.136108   C1320.015137,1034.622681 1313.555908,1038.172363 1306.698608,1040.608398   C1295.273804,1044.667114 1283.726196,1048.410278 1272.119385,1051.919556   C1257.095825,1056.462036 1242.049438,1060.979004 1226.852295,1064.882446   C1213.297974,1068.363647 1199.582153,1071.291260 1185.833496,1073.918701   C1171.685059,1076.622559 1157.429932,1078.793457 1143.186157,1080.965576   C1129.052612,1083.121094 1114.896240,1085.157349 1100.708984,1086.916382   C1092.417847,1087.944336 1084.057861,1088.616211 1075.709106,1088.943481   C1054.380005,1089.779907 1033.043823,1090.559082 1011.703125,1090.932007   C993.039368,1091.258179 974.355286,1091.377197 955.699280,1090.876831   C941.594360,1090.498535 927.466370,1089.469604 913.444031,1087.885986   C893.903870,1085.678955 874.431152,1082.831055 854.969971,1079.981812   C838.144531,1077.518555 821.250549,1075.271362 804.619263,1071.811279   C790.201538,1068.811646 776.108582,1064.249878 761.874512,1060.369507   C754.137268,1058.260132 746.374939,1056.234985 738.679321,1053.982544   C730.843018,1051.688965 723.060547,1049.207153 715.280640,1046.725708   C708.456848,1044.549194 701.597473,1042.452515 694.887146,1039.961548   C688.817749,1037.708618 682.970886,1034.862915 676.945190,1032.483154   C672.937195,1030.900391 668.755066,1029.763916 664.708496,1028.271729   C658.759766,1026.078125 652.769897,1023.957275 646.964539,1021.423035   C637.821045,1017.431519 628.868896,1013.002258 619.730652,1008.998291   C615.273804,1007.045471 610.506897,1005.807922 606.014954,1003.925415   C602.215820,1002.333374 598.626404,1000.246155 594.915161,998.437683   C591.117920,996.587341 587.206482,994.955994 583.490112,992.958801   C579.762329,990.955627 575.869751,989.021912 572.690796,986.306702   C569.940369,983.957520 570.905090,980.604004 572.585022,977.620117   C585.400269,954.857300 598.304016,932.143066 610.933228,909.277283   C620.324646,892.273682 629.277771,875.028503 638.552124,857.959412   C647.825867,840.891541 657.346436,823.957581 666.592041,806.874695   C675.447937,790.511841 684.015137,773.992798 692.860596,757.624268   C696.588013,750.726685 700.703918,744.039062 705.189941,736.314514   C709.415833,737.504028 714.421082,738.066467 718.599182,740.227844   C743.658508,753.191589 769.600037,764.127991 796.217529,773.291809   C812.902649,779.036133 830.143250,783.191040 847.195374,787.835938   C857.602417,790.670715 868.056030,793.419006 878.617798,795.573486   C886.571411,797.195923 894.731934,797.799500 902.796875,798.881775   C912.470703,800.180054 922.132874,801.570007 931.816650,802.788208   C936.045837,803.320190 940.309998,803.661011 944.568970,803.854309   C967.658203,804.902710 990.750916,806.626770 1013.842163,806.622620   C1030.021729,806.619690 1046.204956,804.272583 1062.378418,802.878296   C1072.972168,801.965027 1083.553345,800.902466 1094.135986,799.863708   C1096.560913,799.625732 1098.968628,799.211060 1101.839600,798.875732  z" id="TopMid"/>
  <path fill="#FFFFFF" d=" M1543.639038,1204.864258   C1545.118652,1202.776489 1546.742920,1200.770874 1547.998657,1198.556274   C1548.432129,1197.791748 1548.290894,1196.317139 1547.831909,1195.488281   C1541.284912,1183.662109 1534.556396,1171.936157 1528.040649,1160.093140   C1522.480835,1149.987427 1517.147339,1139.757202 1511.697266,1129.590820   C1497.703491,1103.487061 1483.772095,1077.349365 1469.674561,1051.301758   C1461.225586,1035.691040 1452.364380,1020.302185 1444.007080,1004.643616   C1441.525146,999.993408 1438.027710,995.701416 1438.794922,989.535339   C1439.362183,984.977356 1441.048340,981.881104 1444.919556,979.846497   C1476.872559,963.052917 1507.666870,944.334412 1536.788696,923.022217   C1555.640869,909.225647 1574.272095,895.046631 1592.160278,880.035461   C1610.329224,864.788757 1627.814331,848.674622 1644.936890,832.250122   C1657.650146,820.055115 1669.719360,807.119263 1681.327515,793.858704   C1695.814941,777.309021 1709.968262,760.425171 1723.485107,743.077271   C1744.170166,716.528992 1763.082520,688.730530 1779.627197,659.361145   C1792.563721,636.396851 1806.408936,613.916992 1818.609863,590.573486   C1830.487549,567.848206 1840.802490,544.305481 1851.749023,521.095886   C1852.430054,519.651978 1852.547974,517.953308 1853.080444,516.426331   C1854.171753,513.296814 1855.197266,510.098999 1859.785889,511.807678   C1860.957886,512.244080 1862.428101,511.882629 1863.761230,511.882660   C1908.423828,511.883301 1953.086304,511.883270 1997.748901,511.883331   C1998.700195,511.883331 1999.651611,511.883331 2001.000610,511.883331   C2001.000610,514.072571 2001.000610,515.864502 2001.000610,517.656433   C2001.000610,596.982483 2000.890381,676.308838 2001.151978,755.634033   C2001.181763,764.694580 1999.741455,772.894287 1995.238403,780.687622   C1981.792236,803.958252 1969.322021,827.851562 1954.792114,850.421204   C1939.342896,874.419128 1922.516724,897.592407 1905.276978,920.357056   C1890.505981,939.861633 1874.854980,958.774658 1858.564453,977.031250   C1844.149902,993.185547 1828.697998,1008.474426 1813.010498,1023.416992   C1794.979126,1040.592163 1776.540283,1057.382935 1757.600952,1073.546875   C1744.208862,1084.976807 1729.946533,1095.445190 1715.611084,1105.697144   C1696.966309,1119.031128 1678.222778,1132.293701 1658.854492,1144.530640   C1640.553223,1156.093506 1621.408081,1166.324219 1602.595581,1177.073364   C1591.092529,1183.645874 1579.741211,1190.543091 1567.891724,1196.428467   C1560.518188,1200.090576 1552.341309,1202.135498 1544.135742,1204.859985   C1543.746582,1204.813965 1543.639038,1204.864258 1543.639038,1204.864258  z" id="RightThree"/>
  <path fill="#FFFFFF" d=" M1879.000244,12.999967   C1919.809204,12.999967 1960.118408,12.999967 2000.713623,12.999967   C2000.713623,179.285553 2000.713623,345.350952 2000.713623,511.765228   C1999.357788,511.837097 1997.921143,511.979431 1996.484497,511.979797   C1951.653198,511.991577 1906.821899,511.990875 1861.990601,511.987610   C1856.250366,511.987213 1855.004028,510.697266 1855.004150,504.692932   C1855.009521,343.366943 1855.019043,182.040970 1855.031128,20.714994   C1855.031616,14.510181 1856.600464,13.005325 1863.001099,13.000755   C1868.167480,12.997067 1873.333862,12.999982 1879.000244,12.999967  z" id="RightCorner"/>
  <path fill="#FFFFFF" d=" M1240.001221,627.909363   C1252.686890,651.008057 1265.137573,673.817871 1277.550415,696.648376   C1282.308594,705.399780 1286.964111,714.207092 1291.704956,722.968018   C1292.608765,724.638000 1294.210449,726.094604 1294.601562,727.847900   C1295.943848,733.866455 1294.667114,736.048889 1288.951416,738.710999   C1275.085815,745.168701 1261.402222,752.064148 1247.296509,757.946838   C1233.098145,763.868225 1218.581787,769.082336 1204.012451,774.041504   C1191.553101,778.282410 1178.890869,781.978210 1166.191406,785.450317   C1152.224365,789.269043 1138.211548,793.047119 1124.030884,795.914978   C1113.367920,798.071472 1102.417358,798.838623 1091.579102,800.087708   C1076.500366,801.825378 1061.415405,803.515259 1046.316040,805.059692   C1040.590820,805.645264 1034.822266,805.881042 1029.066650,806.082275   C1017.318604,806.492920 1005.538452,807.436523 993.821594,806.950684   C975.955872,806.209961 958.126709,804.516479 940.293640,803.084106   C929.699524,802.233215 919.059143,801.565613 908.561646,799.997864   C892.723999,797.632690 876.853577,795.165894 861.252686,791.618469   C842.605591,787.378479 824.059937,782.499146 805.788025,776.866150   C791.862427,772.573059 778.274841,767.047424 764.821167,761.393738   C747.928040,754.294800 731.351562,746.445374 714.584595,739.041626   C707.217041,735.788330 706.050659,731.002808 710.849976,723.956299   C713.313354,720.339539 715.318848,716.398499 717.387512,712.527283   C729.575928,689.718079 741.639648,666.841858 753.903442,644.073364   C768.926086,616.182983 784.117920,588.383606 799.211609,560.531311   C811.754395,537.386169 824.271851,514.227295 836.780457,491.063629   C848.950256,468.527466 861.059326,445.958435 873.264221,423.441254   C880.092529,410.843597 887.094482,398.340027 893.927551,385.744904   C894.855164,384.035156 894.709656,381.207428 896.014465,380.352661   C898.518066,378.712463 901.368347,377.959686 904.676758,380.048889   C937.896484,401.026611 974.431152,408.382904 1013.301514,406.393799   C1044.149170,404.815155 1072.705200,396.245422 1098.868652,379.760101   C1102.903931,377.217438 1105.775146,378.947784 1108.056519,383.667755   C1112.805298,393.492401 1117.918335,403.147919 1123.104248,412.752808   C1132.249756,429.691467 1141.567871,446.536804 1150.802734,463.427307   C1165.075562,489.531952 1179.375732,515.621704 1193.592896,541.756653   C1202.369507,557.890564 1211.020874,574.092590 1219.715454,590.271118   C1226.404541,602.717957 1233.073242,615.175781 1240.001221,627.909363  z" id="TopClose"/>
  <path fill="#FFFFFF" d=" M1478.300415,590.265503   C1467.359741,601.879150 1456.817871,613.381104 1445.947876,624.564087   C1428.723877,642.284119 1409.598633,657.866272 1390.225220,673.132690   C1365.909424,692.293518 1339.831421,708.863708 1313.393799,724.879822   C1307.714600,728.320190 1301.799194,731.370728 1295.955444,734.621521   C1289.929932,723.457336 1283.832275,712.066833 1277.646851,700.724182   C1270.765625,688.105103 1263.704224,675.583374 1256.904785,662.920654   C1249.396240,648.937195 1242.204468,634.783386 1234.679810,620.808716   C1222.530273,598.244690 1210.244263,575.754089 1197.971436,553.256714   C1190.133057,538.888367 1182.181396,524.581848 1174.340088,510.215057   C1162.849976,489.163086 1151.389404,468.094788 1139.960571,447.009430   C1130.152100,428.913422 1120.246704,410.866455 1110.743652,392.610718   C1108.375488,388.061523 1105.456055,383.586609 1106.688599,377.502258   C1107.379761,374.091217 1108.307373,371.621735 1110.935791,369.731995   C1138.794312,349.703003 1158.722900,323.239105 1172.753540,292.289093   C1180.580933,275.022797 1186.001465,256.945862 1188.010376,237.888855   C1191.565918,204.160843 1189.325195,170.383102 1189.512695,136.626205   C1189.602417,120.468422 1189.732300,104.310730 1189.771973,88.152824   C1189.826416,66.009552 1189.806763,43.866108 1189.831055,21.722752   C1189.838379,14.989773 1191.936279,12.864115 1198.759033,12.864823   C1310.913696,12.876466 1423.068359,12.904868 1535.223022,12.927955   C1538.388550,12.928606 1541.554199,12.896194 1544.719727,12.907080   C1550.813354,12.928037 1553.002686,15.127296 1553.002563,21.274662   C1553.001465,76.102356 1552.986084,130.930038 1552.987061,185.757736   C1552.988647,281.081268 1552.786865,376.405945 1553.291260,471.726837   C1553.349976,482.839294 1550.520508,492.132202 1544.615845,500.745422   C1529.359741,522.999695 1513.954956,545.159912 1498.152100,567.027100   C1492.273438,575.161560 1485.122681,582.376526 1478.300415,590.265503  z" id="RightClose"/>
  <path fill="#FFFFFF" d=" M1752.589355,701.653198   C1703.825684,775.750854 1641.963501,836.912964 1572.028564,890.871094   C1573.594238,891.392090 1574.804688,891.794861 1576.344238,892.307190   C1575.677124,893.108704 1575.204590,893.958313 1574.493774,894.488647   C1560.398682,905.006714 1546.585571,915.940491 1532.078979,925.859375   C1514.732178,937.720154 1496.699951,948.573608 1479.135620,960.123474   C1469.135254,966.699402 1458.920532,972.736267 1447.942383,977.592346   C1444.613892,979.064697 1440.891357,982.074280 1439.640259,985.275085   C1437.493408,990.767639 1434.886353,989.657227 1430.706055,987.592285   C1434.662964,981.561279 1430.643311,977.487122 1427.718506,972.766174   C1421.577637,962.853638 1415.787720,952.710999 1410.173096,942.487427   C1394.045654,913.121338 1377.989258,883.715637 1362.078491,854.231689   C1351.932007,835.429382 1342.198730,816.404297 1332.085083,797.583923   C1324.041016,782.614624 1315.705078,767.802002 1307.491089,752.924133   C1304.173828,746.915527 1300.835938,740.918396 1297.060425,734.109985   C1307.023438,728.243835 1316.890991,722.709717 1326.481812,716.731812   C1349.103516,702.632202 1371.500488,688.160889 1392.145752,671.230591   C1405.683716,660.128784 1419.283691,649.030334 1432.018066,637.040527   C1445.973145,623.901367 1459.177124,609.938354 1472.305542,595.956055   C1481.894897,585.742981 1491.317993,575.297363 1499.938965,564.270386   C1511.203613,549.862122 1521.910767,534.988953 1532.266602,519.909729   C1539.104126,509.953705 1545.080933,499.385254 1551.050415,488.868073   C1552.735352,485.899231 1553.850708,482.145111 1553.853760,478.749939   C1553.991455,326.432800 1553.975586,174.115509 1553.977539,21.798237   C1553.977661,14.038609 1556.058105,11.977848 1563.889404,11.977322   C1658.212769,11.970970 1752.536133,11.963780 1846.859497,11.957952   C1853.564697,11.957537 1854.999512,13.368928 1854.999634,19.960867   C1855.000244,178.610809 1854.841187,337.261230 1855.293091,495.909882   C1855.330322,509.009918 1852.338135,520.546204 1846.959717,531.891052   C1837.312744,552.239136 1828.094849,572.829895 1817.492920,592.675781   C1804.976562,616.105103 1791.407227,638.985107 1777.856201,661.843567   C1769.904907,675.256104 1761.101196,688.163391 1752.589355,701.653198  z" id="RightMid"/>
  <path fill="#FFFFFF" d=" M785.726807,589.791260   C779.170105,601.781616 772.598083,613.359497 766.193237,625.029114   C760.343994,635.686279 754.708862,646.460693 748.918762,657.150696   C742.232666,669.494812 735.460754,681.792419 728.762451,694.130005   C722.801514,705.109619 716.868408,716.104553 710.973267,727.119690   C709.623108,729.642517 708.479370,732.275879 707.174377,734.996460   C694.043274,727.158264 680.689941,720.015137 668.224243,711.562927   C646.647949,696.933411 625.355286,681.849182 604.471497,666.249084   C593.105713,657.758911 582.706970,647.948364 572.097107,638.481018   C564.560059,631.755493 557.002380,624.975586 550.153259,617.572876   C536.116760,602.401794 522.356201,586.963684 508.835754,571.329590   C488.517242,547.834839 471.365631,522.065369 455.281036,495.547699   C451.516937,489.342041 449.813324,483.060272 449.823730,475.620270   C450.034973,324.639038 450.029846,173.657455 449.862488,22.676153   C449.854645,15.616714 452.908936,12.763320 459.878479,12.773572   C573.696411,12.940996 687.514587,12.871521 801.332764,12.855892   C802.665894,12.855709 803.999634,12.837103 805.332031,12.868850   C810.641235,12.995345 813.151672,15.483427 813.161926,20.813911   C813.203979,42.623512 813.232117,64.433220 813.214478,86.242844   C813.181824,126.552879 813.232117,166.863495 813.017334,207.172653   C812.878174,233.295273 816.598999,258.792206 826.244141,283.052338   C834.292297,303.295441 845.118835,322.085144 859.253418,338.920166   C868.914185,350.426544 879.735779,360.531586 891.732178,369.481171   C896.751892,373.226013 897.978516,380.719421 894.936646,386.451569   C887.252625,400.931641 879.815796,415.543640 872.063477,429.986572   C857.287720,457.514404 842.394897,484.979645 827.481384,512.433228   C820.980347,524.400757 814.220459,536.227844 807.736877,548.204712   C800.327087,561.892822 793.094116,575.676636 785.726807,589.791260  z" id="LeftClose"/>
  <path fill="#FFFFFF" d=" M729.967163,1306.017822   C719.760742,1303.376709 710.014221,1300.614136 700.194702,1298.140869   C693.834961,1296.538818 687.301941,1295.609741 680.969849,1293.917725   C675.117493,1292.353882 669.484375,1289.982300 663.653381,1288.322266   C657.806335,1286.657837 651.780640,1285.619995 645.936218,1283.947632   C642.273560,1282.899658 638.841125,1281.073608 635.233704,1279.799683   C629.671021,1277.835083 624.044067,1276.052490 618.449280,1274.178223   C610.464844,1271.503418 602.497070,1268.777954 594.498901,1266.144897   C588.118469,1264.044312 581.650696,1262.196777 575.327271,1259.941040   C572.503113,1258.933594 570.007080,1257.038574 567.231812,1255.850952   C565.203247,1254.982910 562.929016,1254.709229 560.823486,1253.995850   C558.427246,1253.183838 556.078125,1252.222778 553.742615,1251.244873   C550.709900,1249.975098 547.753723,1248.513550 544.687622,1247.334961   C539.850586,1245.475586 534.914368,1243.872192 530.092957,1241.975342   C528.189758,1241.226807 526.578613,1239.373901 524.668152,1239.070068   C517.306641,1237.899780 511.922394,1232.735840 505.351105,1229.980103   C493.914154,1225.184326 482.588867,1220.089844 471.428894,1214.682861   C467.440704,1212.750610 463.806702,1209.841309 460.470856,1206.863037   C454.575378,1201.599487 454.222321,1196.213013 458.020844,1189.366821   C466.621368,1173.866211 474.982635,1158.232910 483.452271,1142.659546   C495.420349,1120.653564 507.460571,1098.686279 519.356506,1076.641357   C534.108582,1049.303711 548.773132,1021.918579 563.400940,994.514160   C565.610840,990.374084 570.077209,987.927856 575.225586,990.255371   C606.188843,1004.254211 637.292847,1017.959106 668.591064,1031.191406   C681.394470,1036.604370 694.652222,1041.081421 707.966064,1045.117676   C732.251831,1052.480103 756.611572,1059.663208 781.161194,1066.075928   C820.887085,1076.452759 861.387695,1082.840088 902.172180,1087.192871   C923.896057,1089.511475 945.722168,1091.177856 967.546204,1092.159302   C986.272827,1093.001587 1005.068054,1092.783691 1023.822571,1092.450928   C1071.475220,1091.605957 1118.683228,1086.087280 1165.622192,1078.094116   C1200.269775,1072.193848 1234.242676,1063.461060 1267.970337,1053.663940   C1317.374634,1039.312988 1364.991089,1020.353394 1411.479004,998.447021   C1417.166382,995.766907 1422.738403,992.842163 1428.419800,990.148743   C1432.778198,988.082642 1436.980957,989.408569 1439.306152,993.711914   C1450.599121,1014.612549 1461.738525,1035.596313 1473.074829,1056.473389   C1484.654541,1077.799194 1496.520264,1098.970337 1508.039429,1120.328369   C1519.978149,1142.464233 1531.660522,1164.738525 1543.427368,1186.966797   C1544.774658,1189.512085 1546.661255,1192.047119 1547.059448,1194.768188   C1548.242432,1202.852173 1544.179443,1207.200073 1536.519287,1211.045776   C1531.551880,1213.539307 1526.846191,1216.559814 1521.852905,1218.994629   C1512.686157,1223.464233 1503.368774,1227.623901 1494.167969,1232.025391   C1491.323242,1233.386230 1488.677368,1235.157593 1485.890503,1236.647461   C1484.788818,1237.236450 1483.572632,1237.644531 1482.368896,1238.000488   C1480.996338,1238.406372 1479.465454,1238.422485 1478.201416,1239.024414   C1472.384155,1241.794312 1466.739868,1244.760742 1460.384399,1246.467163   C1455.777466,1247.704346 1451.663208,1250.776978 1447.330322,1253.033325   C1446.887329,1253.264160 1446.448242,1253.727295 1446.014893,1253.718262   C1439.239746,1253.577026 1433.848999,1257.136108 1427.980225,1259.820312   C1421.189453,1262.926392 1413.799438,1264.743652 1406.631470,1266.999390   C1394.633179,1270.774780 1382.580200,1274.377686 1370.605225,1278.224854   C1367.450073,1279.238525 1364.592773,1281.189819 1361.431396,1282.172607   C1354.564209,1284.307739 1347.560303,1285.999023 1340.667358,1288.056152   C1335.013184,1289.743530 1329.483521,1291.853271 1323.816162,1293.489990   C1317.979126,1295.176025 1312.056519,1296.576294 1306.143555,1297.984985   C1302.717041,1298.801514 1299.214966,1299.299072 1295.783447,1300.096680   C1287.454224,1302.032593 1279.132935,1304.006104 1270.833496,1306.065918   C1261.715942,1308.328613 1252.693115,1311.021606 1243.507935,1312.951050   C1232.378174,1315.288696 1221.133057,1317.090576 1209.916138,1318.996826   C1201.074341,1320.499146 1192.211548,1321.888184 1183.337036,1323.183716   C1171.790771,1324.869141 1160.241943,1326.562500 1148.660889,1327.978882   C1134.085205,1329.761475 1119.487305,1331.383179 1104.876465,1332.850708   C1095.646362,1333.777466 1086.385742,1334.538452 1077.120117,1334.949585   C1052.370483,1336.047852 1027.612061,1337.615967 1002.854370,1337.669556   C980.602600,1337.717773 958.343628,1336.074463 936.094543,1335.035034   C925.332458,1334.532227 914.569275,1333.892822 903.836243,1332.970581   C891.496033,1331.910156 879.178223,1330.559570 866.869995,1329.165283   C855.726624,1327.902954 844.606079,1326.435059 833.481018,1325.014648   C823.258667,1323.709595 812.995483,1322.634521 802.838379,1320.932373   C791.819824,1319.085938 780.914307,1316.573730 769.936462,1314.472046   C765.582947,1313.638550 761.110840,1313.381836 756.792175,1312.417358   C747.957825,1310.444214 739.190857,1308.169434 729.967163,1306.017822  z" id="TopThree"/>
  <path fill="#FFFFFF" d="M1.000011,768.468628 C7.230843,779.434937 13.199577,791.022644 19.753786,802.269226 C29.647148,819.245483 39.820732,836.062622 50.123486,852.794495 C56.758141,863.569397 63.523033,874.291748 70.800095,884.636169 C79.195686,896.570618 87.903526,908.316833 97.040733,919.690979 C112.269562,938.648010 127.599335,957.547363 143.558853,975.885925 C154.322815,988.254456 166.165695,999.692627 177.672180,1011.403198 C185.253128,1019.118652 192.898697,1026.791504 200.864014,1034.103516 
	C213.041336,1045.282227 225.086426,1056.673706 237.968979,1067.000000 
	C258.746185,1083.654419 280.044952,1099.667603 301.334564,1115.670532 
	C325.230927,1133.633057 350.658569,1149.286499 376.618530,1164.041260 
	C393.882874,1173.853638 411.288971,1183.454468 428.969910,1192.487915 
	C463.160065,1209.956055 497.201385,1227.790527 532.002808,1243.970947 
	C597.662292,1274.498901 666.457642,1295.795166 737.417664,1309.980713 
	C760.382507,1314.571411 783.532349,1318.304810 806.683777,1321.870850 
	C823.146667,1324.406616 839.743042,1326.100708 856.299866,1327.995361 
	C874.508850,1330.079224 892.719360,1332.197632 910.969971,1333.852051 
	C923.356262,1334.974731 935.805908,1335.502563 948.239380,1335.978027 
	C967.524597,1336.715698 986.820129,1337.630615 1006.111389,1337.633911 
	C1024.576172,1337.637085 1043.065674,1336.980225 1061.499268,1335.865845 
	C1080.323486,1334.727661 1099.111938,1332.869751 1117.880493,1330.974487 
	C1135.119263,1329.233765 1152.316650,1327.074585 1169.520508,1325.001465 
	C1179.752563,1323.768555 1190.010132,1322.634521 1200.168213,1320.930908 
	C1211.187988,1319.082886 1222.092651,1316.556030 1233.073608,1314.463013 
	C1238.236328,1313.479004 1243.527588,1313.109863 1248.641235,1311.940308 
	C1255.869995,1310.286743 1262.950317,1307.991943 1270.164673,1306.265747 
	C1276.928467,1304.647461 1283.828247,1303.595215 1290.586304,1301.956299 
	C1297.149902,1300.364624 1303.593262,1298.283936 1310.119873,1296.531250 
	C1315.730103,1295.024414 1321.394897,1293.722778 1327.014526,1292.249634 
	C1335.833252,1289.938232 1344.696045,1287.766357 1353.428589,1285.161377 
	C1367.710938,1280.900391 1381.996704,1276.612915 1396.106689,1271.822998 
	C1408.943481,1267.465332 1421.557007,1262.447388 1434.252441,1257.676636 
	C1444.491455,1253.829224 1454.718994,1249.950195 1464.923584,1246.012573 
	C1468.115234,1244.781006 1471.253540,1243.394043 1474.351074,1241.939209 
	C1486.147339,1236.399780 1498.023682,1231.015991 1509.670654,1225.176025 
	C1525.534180,1217.221802 1540.931763,1208.286621 1557.040527,1200.885010 
	C1581.306641,1189.735352 1604.492188,1176.610107 1627.487061,1163.208130 
	C1649.421631,1150.423950 1670.986206,1136.885010 1691.883667,1122.474609 
	C1713.905884,1107.288696 1735.352417,1091.189209 1756.282349,1074.524170 
	C1772.176758,1061.868530 1787.121094,1047.973999 1802.020630,1034.127808 
	C1816.054810,1021.086182 1829.916016,1007.799927 1843.050781,993.864929 
	C1857.338623,978.706482 1871.053955,962.968872 1884.364502,946.940369 
	C1896.361084,932.494141 1908.078979,917.737183 1918.835571,902.358826 
	C1935.847168,878.037903 1952.491455,853.421082 1968.256348,828.280579 
	C1979.108887,810.973816 1988.174072,792.548889 1998.153687,774.688293 
	C1999.123169,772.953125 2000.908691,771.674072 2002.657715,770.091675 
	C2003.000000,1140.295044 2003.000000,1510.589966 2003.000000,1880.942505 
	C1335.774048,1880.942505 668.548218,1880.942505 1.000000,1880.942505 
	C1.000000,1510.312500 1.000000,1139.624878 1.000011,768.468628 z" id="DeepThree"/>
</svg>
